<svg width="818" height="248" viewBox="0 0 818 248" fill="none" xmlns="http://www.w3.org/2000/svg">
<g clip-path="url(#clip0_240_576)">
<path d="M41.6647 51.1453C35.6245 51.3253 17.7994 52.1868 11.7591 52.431C9.80571 52.5082 7.90372 52.6111 5.80892 52.7396L0 53.0482L0.0771061 63.7067C0.0771061 69.351 0.0771217 74.7509 0.334152 80.138C0.655441 87.6851 1.13095 95.2194 1.61931 102.766L2.73738 120.946C3.18719 128.069 3.63701 135.179 3.91974 142.315C4.0097 144.771 4.25389 147.111 6.01455 148.743C6.76755 149.337 7.63247 149.773 8.55767 150.025C9.48288 150.277 10.4494 150.339 11.3993 150.209H11.5278C14.6186 149.97 17.6916 149.541 20.7295 148.923L25.099 148.152L27.6693 147.74L25.536 107.601C26.2428 107.691 26.8983 107.755 27.5409 107.806C30.3425 108.012 46.137 107.356 48.823 104.759C51.509 102.162 51.6118 98.3308 51.4832 95.5537L50.9049 84.4066L23.3384 85.0366L22.7601 74.1595L51.3162 72.6423L51.1619 69.6981C51.0977 68.4124 51.0591 67.1267 51.0077 65.9695C50.9663 63.4296 50.7947 60.8934 50.4937 58.371C49.6712 52.0325 46.9852 51.0039 41.6647 51.1453Z" fill="#91C7EC"/>
<path d="M108.584 116.138L85.952 115.598V49.7955C85.952 44.8327 85.772 41.1427 83.3817 38.867C80.9913 36.5913 77.5085 36.6427 71.3141 36.8742C66.8289 37.0413 63.9501 40.0113 63.8088 44.5884C63.8088 46.427 63.6417 48.2784 63.5389 50.1169C63.3975 52.4055 63.269 54.6812 63.2176 56.9697C63.1276 61.9583 63.0505 67.7439 63.2176 73.5296C63.359 77.5796 63.5646 81.6425 63.7831 85.6924C64.0401 90.8353 64.31 95.9781 64.4257 101.121C64.567 107.549 64.567 113.914 64.567 120.304C64.567 124.264 64.567 128.236 64.567 132.196C64.619 133.222 64.8723 134.226 65.3124 135.154C65.4409 135.462 65.5823 135.796 65.6979 136.169L66.3662 138.188H68.4996C69.8747 138.188 71.2627 138.188 72.6249 138.252C75.8341 138.376 79.0477 138.32 82.2507 138.085C83.4206 138.065 84.5879 138.203 85.7207 138.496C87.1096 138.809 88.5257 138.985 89.9488 139.024C92.2235 139.024 106.476 138.394 108.789 136.092L109.663 135.218V133.932C109.663 132.646 109.663 131.258 109.753 129.908C110.086 125.972 109.843 122.009 109.033 118.144L108.584 116.138Z" fill="#91C7EC"/>
<path d="M149.103 124.251C149.607 122.056 149.754 119.794 149.54 117.552C149.309 111.509 149.039 105.479 148.769 99.4494L148.011 81.848C147.677 74.0438 147.343 42.634 147.124 34.8169C147.154 33.7868 146.977 32.7612 146.604 31.8006C146.231 30.84 145.669 29.9639 144.952 29.2241C144.245 28.6358 143.421 28.2025 142.536 27.9523C141.651 27.702 140.722 27.6403 139.812 27.7712L124.788 29.0569V31.7569C124.788 33.1069 124.788 34.4055 124.724 35.614C124.647 38.5069 124.57 64.8253 124.878 67.6281C125.589 75.2468 125.632 82.9132 125.007 90.5394C124.48 98.498 124.39 106.559 124.3 114.364L124.184 122.412C124.069 128.943 127.911 129.895 129.569 129.998C131.471 130.126 133.386 130.191 135.314 130.191C138.128 130.191 140.968 130.062 143.796 129.792C146.893 129.509 148.705 125.652 149.103 124.251Z" fill="#91C7EC"/>
<path d="M254.704 118.169C257.994 104.027 259.24 88.8038 258.623 70.0967L258.546 67.641L256.117 67.2682C245.759 65.7382 238.125 65.5196 230.569 66.561L227.998 66.921V81.9381L233.306 82.1695C235.079 82.2338 236.763 82.2853 238.447 82.4781L239.32 82.6195C239.249 82.9286 239.127 83.2239 238.961 83.4938C238.214 84.5569 237.39 85.5626 236.493 86.5023C235.709 87.3766 234.925 88.2381 234.218 89.1766C228.191 97.1223 221.611 100.247 213.527 99.0251C212.934 98.9572 212.335 98.9572 211.741 99.0251C204.12 97.958 196.512 95.8494 192.464 87.7495C191.911 86.6566 191.333 85.5638 190.754 84.4838C189.59 82.3991 188.539 80.2532 187.606 78.0553C186.697 75.8303 186.154 73.4725 185.999 71.0739C185.667 66.7996 186.29 62.505 187.824 58.5018C189.358 54.4987 191.764 50.8877 194.867 47.9311C201.383 41.7212 207.102 38.8026 213.425 38.4683C222.241 38.0055 229.013 42.5055 235.041 47.4683C236.724 48.8569 238.357 50.3226 240.002 51.8011L244.435 55.7354L257.621 42.6983L251.581 37.4141C249.01 35.0998 246.363 32.8241 243.716 30.6127C231.147 20.147 216.162 17.8585 199.172 23.837C187.646 27.7068 177.976 35.7388 172.055 46.3626C168.2 53.2025 165.861 61.3025 165 71.1124C163.972 82.8766 167.468 93.4066 175.114 101.532C181.54 108.398 189.803 112.692 197.759 116.832L198.594 117.269C200.027 117.95 201.551 118.422 203.118 118.671L203.773 118.812C213.245 120.844 222.883 119.262 233.242 113.965L239.346 110.867L240.696 120.509H254.19L254.704 118.169Z" fill="#91C7EC"/>
<path d="M346.901 107.421C353.326 106.238 353.596 101.468 353.326 96.6724L352.761 87.081C352.208 77.9268 351.63 68.4511 351.399 59.1555C351.232 52.007 351.321 44.6913 351.399 37.6328C351.463 32.6828 351.527 27.7328 351.501 22.7828C351.501 18.2571 351.27 14.6186 348.931 12.3558C346.592 10.0929 343.109 10.0029 338.097 10.0286C337.12 10.0286 336.144 10.0286 335.193 10.1315C330.643 10.5815 327.957 13.41 327.803 17.8457L327.636 21.9728C327.508 25.3285 327.366 28.6842 327.353 32.0399C327.353 35.7042 327.443 39.3684 327.546 43.1613V45.2184C318.978 45.2184 310.436 45.1841 301.92 45.1155C301.47 41.9013 301.033 38.687 300.764 35.4856C300.494 32.2842 300.365 29.2499 300.237 26.1128C300.147 23.9785 300.057 21.8314 299.915 19.6843C299.478 12.5357 295.135 11.2629 292.577 11.1472C290.02 11.0315 287.179 11.1472 284.288 11.2243L277.477 11.4172L280.959 106.559L282.784 107.254C285.791 108.432 289.001 109.004 292.23 108.938C295.722 108.785 299.178 108.176 302.511 107.125L304.683 106.482L304.311 86.2839C310.981 86.1553 317.663 85.7439 324.063 85.0753C325.94 85.0753 327.816 85.101 329.692 85.1525V88.071C329.692 92.5196 329.397 79.4439 329.692 84.0082C330.088 89.1919 330.813 94.3452 331.864 99.4367C333.098 105.634 339.138 108.861 346.901 107.421Z" fill="#91C7EC"/>
<path d="M393.385 38.3527C393.28 39.4895 393.245 40.6317 393.282 41.7727V54.7069C393.282 62.1512 393.282 69.5954 393.372 77.0397C393.514 81.0662 393.861 85.0828 394.413 89.0739L394.696 91.3624C395.171 95.3867 397.626 98.0224 401.25 98.3952C403.537 98.6656 405.836 98.8201 408.138 98.8581C410.631 98.8885 413.116 98.5594 415.515 97.881L417.301 97.3538L417.751 94.551C417.908 93.841 417.999 93.1179 418.021 92.391C418.021 80.8282 418.021 69.2569 418.021 57.6769C418.021 56.5969 418.021 55.4912 418.111 54.3855C418.444 51.1248 418.205 47.831 417.404 44.6527C415.913 39.9084 416.209 35.0099 416.517 29.8156C416.659 27.3085 416.813 36.5399 416.775 33.8656H417.25C419.743 33.8656 422.005 33.8656 424.267 33.8656H424.961C427.364 33.8789 429.767 33.763 432.158 33.5185C432.338 33.5185 436.553 32.9528 437.517 29.9571C439.072 25.0328 438.905 8.53719 437.029 4.59007C434.728 -0.257042 429.755 -0.102754 426.58 0.0129599C423.74 0.102959 420.9 0.218673 418.06 0.334387C413.15 0.527243 408.241 0.732962 403.332 0.822961C399.065 0.900104 394.798 0.887231 390.48 0.887231C386.805 0.887231 383.103 0.887231 379.415 0.887231C378.151 0.956288 376.904 1.2119 375.714 1.64579C375.38 1.76151 375.058 1.86438 374.75 1.94152L372.18 2.58437L374.57 32.7985H394.014C393.671 34.6324 393.461 36.4886 393.385 38.3527Z" fill="#91C7EC"/>
<path d="M489.078 34.637C491.505 33.4596 494.162 32.8288 496.859 32.7888C499.557 32.7488 502.231 33.3007 504.692 34.4055C508.548 35.9355 512.159 37.7355 516.413 39.8183C518.392 40.7826 520.487 41.8112 522.723 42.8655L524.818 43.8684L527.606 40.3712C528.609 39.0855 529.663 37.7998 530.806 36.5141C531.589 35.7732 532.204 34.8739 532.612 33.8762C533.02 32.8786 533.211 31.8055 533.171 30.7284C533.069 29.8173 532.773 28.9386 532.303 28.1513C531.833 27.3641 531.2 26.6865 530.447 26.1641L528.699 24.8013C525.865 22.3956 522.77 20.3168 519.471 18.6042V18.6042C516.728 17.3901 513.902 16.3719 511.015 15.5571C508.836 14.9418 506.692 14.2123 504.589 13.3714C497.984 10.6328 491.738 11.3014 486.944 12.1885C482.94 13.1079 479.088 14.5974 475.506 16.6114C474.285 17.2285 473.065 17.8971 471.818 18.4113C465.34 21.1965 460.175 26.3589 457.386 32.837C455.458 37.3241 453.877 42.0041 452.361 46.5169C451.641 48.6255 450.934 50.734 450.189 52.8297C447.843 59.5716 447.771 66.897 449.983 73.6839C452.783 83.2031 457.932 91.8647 464.955 98.8709C473.257 107.138 482.061 111.188 491.789 111.188C492.637 111.188 493.486 111.188 494.36 111.098C501.534 110.382 508.6 108.824 515.41 106.457C521.463 104.554 526 100.697 529.984 96.788L531.205 95.5923L530.781 93.9466C529.264 88.1352 525.512 84.9467 521.476 81.8095L519.69 80.4467L517.891 81.8095C509.512 88.2381 502.957 90.3852 495.221 89.2795C485.389 87.8652 477.807 83.0567 471.381 74.2239C470.3 72.6945 469.545 70.9592 469.163 69.1257C468.78 67.2922 468.779 65.3995 469.158 63.5654C471.689 49.4612 478.218 40.0241 489.078 34.637Z" fill="#91C7EC"/>
<path d="M601.915 97.5981L601.221 97.0196C597.802 94.1653 594.487 91.1953 590.94 88.0196L589.654 86.8496L590.683 86.5153C593.714 85.6125 596.517 84.0732 598.906 82.0002C601.295 79.9272 603.215 77.3682 604.537 74.4939C608.024 67.1683 608.517 58.7705 605.91 51.0869C603.304 43.4032 597.804 37.0402 590.58 33.3513C583.791 30.0604 576.255 28.6191 568.732 29.1728C564.448 29.4985 560.164 29.9056 555.881 30.3942C554.879 30.5244 553.901 30.7972 552.976 31.2042L550.11 32.1556L548.105 124.842L549.969 125.601C552.861 126.917 555.983 127.651 559.158 127.761C562.565 127.673 565.887 126.679 568.784 124.881L570.274 124.032V97.8424L605.59 127.684L617.157 113.541L615.872 111.715C611.888 105.917 606.811 101.687 601.915 97.5981ZM581.134 70.7783C578.284 71.4955 575.39 72.028 572.472 72.3725L570.994 72.5783V46.8641C573.436 46.0155 576.058 46.9413 579.746 48.4841L580.915 48.9598C582.821 49.7799 584.496 51.057 585.792 52.6782C587.087 54.2994 587.964 56.2149 588.344 58.2555C589.899 65.0183 587.611 68.9911 581.134 70.7783Z" fill="#91C7EC"/>
<path d="M668.074 47.8539C662.933 47.9567 646.085 48.201 640.983 48.5096C638.412 48.6768 635.765 48.921 632.938 49.191L626.178 49.8082V101.931C626.178 109.825 626.178 117.719 626.37 125.601C626.536 128.929 626.936 132.241 627.566 135.513C627.823 136.992 628.08 138.483 628.285 140.026L628.658 142.701L636.202 142.302C639.646 142.109 642.923 141.916 646.2 141.839C649.478 141.762 664.501 141.839 667.907 141.839H675.72V138.895C675.72 137.841 675.72 136.838 675.72 135.873C675.799 133.73 675.764 131.584 675.618 129.445C675.155 123.955 672.803 121.731 667.213 121.602C664.925 121.538 650.84 121.602 648.359 121.602H647.807V103.152L673.15 101.044V84.728H667.097C664.797 84.728 650.788 84.818 648.616 84.6122C648.286 84.5384 647.969 84.4126 647.678 84.2394C647.537 82.7609 647.344 81.2823 647.151 79.7908C646.571 76.2953 646.334 72.7513 646.445 69.2095H675.72V62.5881C675.72 60.0167 675.72 57.5353 675.72 55.1182C675.489 49.911 673.15 47.6482 668.074 47.8539Z" fill="#91C7EC"/>
<path d="M817.512 69.4153L817.126 68.6695L815.186 67.5124C811.163 65.0824 806.627 62.3696 800.548 63.3724L798.98 63.6424L777.878 111.625L774.202 101.609C771.349 93.8951 768.573 86.3094 765.836 78.7752C765.103 76.7824 764.409 74.7509 763.741 72.7709C763.176 71.0995 762.61 69.4152 762.006 67.7567C760.297 62.9481 755.979 62.5239 753.113 62.2539C752.547 62.2539 751.982 62.1382 751.442 62.061C749.643 61.791 746.302 62.1381 744.155 67.6024L736.2 87.6209C733.493 94.4094 730.798 101.194 728.117 107.974C727.808 108.771 727.525 109.581 727.243 110.455L727.127 110.224C725.533 105.711 724.03 101.455 722.616 97.2251C722.038 95.4765 721.511 93.6894 720.971 91.8508C720.431 90.0123 719.827 87.9937 719.172 86.0523L717.823 82.028C715.998 76.5766 714.096 70.9452 711.885 65.5067C711.463 64.2138 710.78 63.0215 709.878 62.004C708.976 60.9865 707.874 60.1657 706.642 59.5924C704.251 58.6024 701.501 58.8082 698.185 60.2353C696.33 61.0715 694.527 62.0204 692.788 63.0767C686.246 66.9338 685.475 69.0553 688.277 75.9981C688.971 77.7338 689.703 79.4438 690.513 81.3337C691.862 84.5094 693.276 87.7623 694.368 91.1308C698.134 102.072 701.848 113.232 705.536 124.289L716.293 156.213L723.721 156.445L730.211 156.663C735.545 156.843 737.678 153.719 738.539 151.083L742.086 140.001C744.554 132.286 747.098 124.341 749.707 116.536C750.735 113.464 752.02 110.429 753.267 107.536L753.64 106.688C754.154 107.974 754.668 109.259 755.143 110.545C755.516 111.548 755.812 112.589 756.12 113.631C756.656 115.72 757.415 117.746 758.382 119.674C763.269 128.813 766.699 138.66 768.547 148.859C769.293 152.716 771.542 154.735 775.217 154.863L787.234 155.262L790.254 147.612C792.014 143.202 793.672 139.023 795.214 134.755C800.072 121.435 804.93 107.858 809.621 94.7308L813.297 84.4452C813.759 83.1595 814.415 81.6937 815.109 80.1637C816.108 78.1072 816.967 75.9852 817.679 73.8123C818.099 72.3671 818.041 70.8244 817.512 69.4153V69.4153Z" fill="#91C7EC"/>
<path d="M209.352 162.23C197.156 150.878 180.539 159.312 180.372 192.432C180.077 200.057 182.088 207.594 186.142 214.057L187.749 247.794C187.749 247.794 207.81 249.286 210.882 243.281C210.882 243.281 210.111 232.417 210.882 232.211C211.653 232.006 290.368 233.497 290.368 233.497C299.57 233.433 302.307 228.843 301.164 217.156C301.164 209.442 290.998 204.684 286.577 213.221C281.694 222.414 281.064 200.814 265.668 215.471C265.668 215.471 259.576 203.9 242.535 216.423C240.916 210.123 229.683 205.083 221.176 219.329C219.441 216.293 216.925 213.777 213.89 212.043C210.855 210.309 207.411 209.419 203.916 209.467L209.417 202.627C212.27 208.902 224.119 217.143 233.834 204.954C233.834 204.954 244.051 216.976 256.402 206.459C256.402 206.459 266.246 216.976 276.759 204.954C280.73 213.222 288.646 211.653 297.488 205.212C300.804 200.262 301.896 193.936 302.038 188.035C302.038 175.949 286.436 171.037 279.547 180.925H234.811C236.559 165.972 229.915 144.706 209.352 162.23Z" fill="#F7B1C9"/>
<path d="M183.738 161.896C185.718 162.346 185.114 157.885 193.339 154.606C193.517 154.543 193.668 154.42 193.766 154.259C193.864 154.097 193.904 153.906 193.878 153.719C193.711 152.909 192.709 151.855 187.967 153.282C185.404 154.012 183.23 155.721 181.914 158.039C180.937 159.839 180.14 161.086 183.738 161.896Z" fill="#F7B1C9"/>
<path d="M232.665 155.905C230.956 156.998 230.018 152.601 221.176 152.279C220.985 152.277 220.8 152.21 220.653 152.088C220.506 151.966 220.404 151.798 220.366 151.611C220.25 150.788 220.842 149.464 225.79 149.219C228.45 149.038 231.074 149.916 233.089 151.662C234.606 153.025 235.775 153.938 232.665 155.905Z" fill="#F7B1C9"/>
<path d="M293.101 189.56C293.395 187.529 292.318 185.692 290.695 185.457C289.072 185.222 287.519 186.679 287.225 188.71C286.931 190.741 288.009 192.577 289.631 192.812C291.254 193.047 292.808 191.591 293.101 189.56Z" fill="white"/>
<path d="M286.732 193.423C287.945 192.32 287.811 190.194 286.431 188.676C285.051 187.157 282.949 186.821 281.736 187.924C280.523 189.027 280.658 191.153 282.037 192.671C283.417 194.19 285.519 194.526 286.732 193.423Z" fill="white"/>
<path d="M227.892 179.349C228.483 173.642 226.462 168.756 223.377 168.436C220.292 168.116 217.311 172.483 216.719 178.19C216.128 183.897 218.15 188.782 221.235 189.102C224.32 189.422 227.3 185.056 227.892 179.349Z" fill="white"/>
<path d="M203.171 192.133C206.485 190.988 207.586 185.463 205.629 179.791C203.673 174.119 199.4 170.449 196.085 171.593C192.771 172.737 191.67 178.263 193.627 183.935C195.583 189.607 199.856 193.277 203.171 192.133Z" fill="white"/>
<path d="M202.549 188.79C204.347 188.17 204.857 184.918 203.687 181.529C202.518 178.139 200.112 175.894 198.314 176.515C196.516 177.136 196.007 180.387 197.176 183.777C198.345 187.166 200.751 189.411 202.549 188.79Z" fill="#F7B1C9"/>
<path d="M225.766 180.391C226.412 176.863 225.418 173.726 223.547 173.384C221.676 173.041 219.636 175.623 218.99 179.15C218.345 182.677 219.339 185.815 221.21 186.157C223.081 186.5 225.121 183.918 225.766 180.391Z" fill="#F7B1C9"/>
<path d="M414.076 221.63C413.69 202.255 399.065 191.66 399.065 191.66C397.665 178.803 391.599 164.236 391.599 164.236C382.937 146.326 378.336 158.283 378.336 158.283L376.383 185.283L372.424 196.507L366.127 184.795L363.325 157.885C363.325 157.885 358.352 146.082 350.255 164.249C350.255 164.249 344.639 179.035 343.65 191.905C343.65 191.905 329.359 202.949 329.513 222.324C329.513 222.324 334.654 237.881 367.759 238.884L368.325 245.39L379.21 244.786L378.542 239.154C409.694 236.621 414.076 221.63 414.076 221.63Z" fill="#91C7EC"/>
<path d="M338.934 215.15C338.934 215.15 346.362 203.27 358.211 204.749C358.211 204.749 365.009 204.749 367.721 210.702C368.116 211.567 368.27 212.523 368.169 213.468C368.067 214.414 367.713 215.315 367.143 216.076C365.385 218.433 363.029 220.275 360.319 221.412C358.078 222.288 355.678 222.682 353.275 222.566C350.872 222.451 348.521 221.83 346.375 220.743C343.701 219.509 340.501 217.503 338.934 215.15Z" fill="white"/>
<path d="M403.961 213.659C403.961 213.659 395.351 202.589 383.682 205.276C383.682 205.276 376.922 205.97 374.827 212.155C374.524 213.056 374.469 214.022 374.668 214.952C374.867 215.882 375.313 216.741 375.958 217.439C377.94 219.609 380.471 221.204 383.283 222.054C385.602 222.704 388.033 222.854 390.414 222.495C392.795 222.136 395.074 221.276 397.099 219.972C399.643 218.403 402.638 216.153 403.961 213.659Z" fill="white"/>
<path d="M373.465 228.509C373.465 228.509 374.609 230.231 375.483 228.509C375.483 228.509 374.429 221.951 372.488 223.893C372.488 223.893 370.561 221.951 368.633 228.701C368.753 228.838 368.902 228.948 369.068 229.023C369.234 229.098 369.414 229.137 369.597 229.137C369.779 229.137 369.959 229.098 370.125 229.023C370.292 228.948 370.44 228.838 370.561 228.701C371.537 227.737 370.663 227.506 372.064 227.146C373.465 226.786 373.465 228.509 373.465 228.509Z" fill="white"/>
<path d="M356.746 221.849C359.62 221.849 361.951 218.188 361.951 213.672C361.951 209.156 359.62 205.495 356.746 205.495C353.871 205.495 351.541 209.156 351.541 213.672C351.541 218.188 353.871 221.849 356.746 221.849Z" fill="#91C7EC"/>
<path d="M388.356 221.834C391.227 221.685 393.364 217.897 393.129 213.373C392.895 208.848 390.377 205.302 387.506 205.451C384.636 205.6 382.499 209.388 382.733 213.912C382.968 218.436 385.485 221.983 388.356 221.834Z" fill="#91C7EC"/>
<path d="M459.738 185.296C459.262 182.287 457.45 173.943 451.423 170.33C451.423 170.33 434.151 162.899 438.327 182.223C438.327 182.223 438.816 187.816 449.033 193.01C444.405 197.668 441.769 203.943 441.682 210.509C441.682 221.862 449.945 231.723 462.09 236.724C462.09 236.724 459.519 242.677 463.953 244.156C467.385 245.3 486.957 245.904 495.774 245.197C499.154 244.914 499.783 239.874 498.177 236.853L498.498 236.724L498.627 236.814L498.511 236.724C510.643 231.659 518.932 221.797 518.932 210.509C518.862 206.981 518.068 203.505 516.597 200.298C515.127 197.091 513.013 194.221 510.386 191.866C503.305 185.116 492.394 180.796 480.313 180.796C473.203 180.724 466.169 182.263 459.738 185.296V185.296Z" fill="#FDCD9A"/>
<path d="M521.606 180.732C525.795 161.446 508.523 168.839 508.523 168.839C501.095 173.3 500.066 184.923 500.066 184.923C503.895 186.549 507.383 188.883 510.348 191.802C521.13 186.53 521.606 180.732 521.606 180.732Z" fill="#FDCD9A"/>
<path d="M462.873 224.78C462.873 224.78 481.791 238.151 498.857 224.78C498.857 224.78 500.348 212.759 486.931 208.464C475.969 204.942 464.068 211.91 462.95 223.379C462.924 223.829 462.886 224.304 462.873 224.78Z" fill="white"/>
<path d="M490.66 216.603C490.66 214.546 486.997 212.887 482.486 212.887C477.975 212.887 474.312 214.546 474.312 216.603C474.312 218.403 477.127 219.907 480.867 220.241C480.45 221.202 480.244 222.241 480.263 223.289C480.263 225.757 481.252 227.75 482.486 227.75C483.72 227.75 484.709 225.757 484.709 223.289C484.728 222.241 484.522 221.202 484.105 220.241C487.884 219.907 490.66 218.403 490.66 216.603Z" fill="#FDCD9A"/>
<path d="M493.666 196.546C493.666 196.546 496.622 200.995 499.604 196.546C499.604 196.546 505.541 195.054 502.572 200.994C502.572 200.994 497.316 208.426 491.777 200.994C491.777 200.994 487.729 193.576 493.666 196.546Z" fill="white"/>
<path d="M460.985 196.546C460.985 196.546 463.941 200.995 466.922 196.546C466.922 196.546 472.872 195.054 469.904 200.994C469.904 200.994 464.634 208.426 459.095 200.994C459.095 200.994 455.047 193.576 460.985 196.546Z" fill="white"/>
<path d="M561.343 185.116C563.412 185.026 562.23 180.809 570.57 176.553C570.57 176.553 571.251 173.236 564.607 176.078C562.136 177.084 560.16 179.024 559.107 181.478C558.374 183.368 558.374 185.232 561.343 185.116Z" fill="#7DC99D"/>
<path d="M618.672 182.03C616.719 182.725 616.244 178.379 606.9 177.569C606.9 177.569 605.024 174.753 612.26 174.882C614.926 174.885 617.484 175.938 619.379 177.813C620.806 179.292 621.513 181.015 618.672 182.03Z" fill="#7DC99D"/>
<path d="M637.539 227.609C636.061 214.225 624.173 214.225 624.173 214.225V199.838C624.199 196.093 623.043 192.435 620.87 189.385C611.874 177.068 597.635 181.671 591.492 184.473C585.914 181.902 573.615 177.891 564.696 186.415C562.794 188.284 561.288 190.518 560.27 192.984C559.252 195.45 558.742 198.096 558.772 200.763V214.225C558.772 214.225 546.884 214.225 545.393 227.609C545.393 227.609 542.425 238.01 564.671 238.01L588.433 239.489C588.433 239.489 586.955 245.442 589.924 245.442H592.893C595.861 245.442 594.371 239.489 594.371 239.489L618.146 238.01C640.508 238.01 637.539 227.609 637.539 227.609Z" fill="#7DC99D"/>
<path d="M577.38 223.147C585.174 223.147 591.491 215.497 591.491 206.06C591.491 196.623 585.174 188.973 577.38 188.973C569.587 188.973 563.27 196.623 563.27 206.06C563.27 215.497 569.587 223.147 577.38 223.147Z" fill="white"/>
<path d="M582.573 217.207C585.036 217.207 587.032 212.217 587.032 206.06C587.032 199.904 585.036 194.913 582.573 194.913C580.11 194.913 578.113 199.904 578.113 206.06C578.113 212.217 580.11 217.207 582.573 217.207Z" fill="#7DC99D"/>
<path d="M605.603 223.147C613.396 223.147 619.714 215.497 619.714 206.06C619.714 196.623 613.396 188.973 605.603 188.973C597.81 188.973 591.492 196.623 591.492 206.06C591.492 215.497 597.81 223.147 605.603 223.147Z" fill="white"/>
<path d="M598.92 217.207C601.383 217.207 603.38 212.217 603.38 206.06C603.38 199.904 601.383 194.913 598.92 194.913C596.458 194.913 594.461 199.904 594.461 206.06C594.461 212.217 596.458 217.207 598.92 217.207Z" fill="#7DC99D"/>
<path d="M583.819 229.113C584.617 230.258 585.813 231.065 587.173 231.376C588.567 231.736 589.991 231.969 591.427 232.07C592.825 232.26 594.248 232.068 595.546 231.516C596.845 230.964 597.97 230.072 598.804 228.933C599.058 228.489 599.128 227.962 598.998 227.467C598.868 226.971 598.549 226.547 598.11 226.284C597.665 226.041 597.144 225.977 596.654 226.106C596.164 226.235 595.742 226.547 595.475 226.979C595.347 227.172 595.347 227.172 595.475 226.979L595.244 227.223C595.165 227.307 595.079 227.385 594.987 227.454C595.154 227.339 595.154 227.339 594.987 227.454L594.383 227.814C594.01 228.02 594.576 227.814 594.203 227.892C593.83 227.969 593.753 228.033 593.522 228.084C593.29 228.136 592.815 228.187 593.123 228.162C592.563 228.2 592 228.2 591.44 228.162C590.492 228.078 589.552 227.928 588.625 227.712L588.034 227.57C587.957 227.57 587.327 227.274 587.713 227.467C587.512 227.371 587.318 227.259 587.134 227.133C587.559 227.454 586.865 226.696 587.134 227.133C586.87 226.699 586.448 226.385 585.957 226.255C585.466 226.126 584.944 226.192 584.5 226.439C584.061 226.699 583.743 227.121 583.613 227.614C583.483 228.107 583.552 228.632 583.806 229.074L583.819 229.113Z" fill="white"/>
</g>
<defs>
<clipPath id="clip0_240_576">
<rect width="818" height="248" fill="white"/>
</clipPath>
</defs>
</svg>
