<?xml version="1.0" encoding="UTF-8"?><svg id="Calque_2" xmlns="http://www.w3.org/2000/svg" viewBox="0 0 413.47 327.91"><defs><style>.cls-1{fill:#444a4c;}</style></defs><g id="Calque_1-2"><g><path class="cls-1" d="M187.52,111.14H18C-6,104.53,.93,74.79,.93,74.79c14.4-36.34,38.93-19.13,38.93-19.13-6.4-22.47,13.87-35.62,13.87-35.62,26.68-12.16,40.55,7.77,40.55,7.77C106-3.71,134.26,.15,134.26,.15c41.08,3.57,35.23,36.35,35.23,36.35,6.05-3.63,13.2-4.96,20.15-3.75s13.23,4.89,17.69,10.36c23.48,40.37-19.81,68.03-19.81,68.03Z"/><path class="cls-1" d="M386.68,327.91H217.16c-24-6.61-17.07-36.35-17.07-36.35,14.4-36.34,38.93-19.13,38.93-19.13-6.4-22.47,13.87-35.62,13.87-35.62,26.68-12.16,40.55,7.77,40.55,7.77,11.72-31.52,39.98-27.66,39.98-27.66,41.08,3.57,35.23,36.35,35.23,36.35,6.05-3.63,13.2-4.96,20.15-3.75s13.23,4.89,17.69,10.36c23.48,40.37-19.81,68.03-19.81,68.03Z"/></g></g></svg>